# xmcd CD database file
#
# Track frame offsets:
#	150
#	16005
#	32974
#	53908
#	75518
#	92144
#	120270
#	134290
#	149064
#	164725
#	182794
#	206638
#	224377
#	260905
#	281857
#	305884
#
# Disc length: 4229 seconds
#
# Revision: 0
# Processed by: cddbd v1.5.1PL0 Copyright (c) Steve Scherf et al.
# Submitted via: CDex 1.51
#
DISCID=fa108310
DTITLE=Vari - No stress Vol. 2
DYEAR=2001
DGENRE=New Age
TTITLE0=Moby/Porcelain
TTITLE1=Goldfrapp/Lovely Head
TTITLE2=Morcheeba/Blindfold
TTITLE3=Thievery corporation/Lebanese Blonde
TTITLE4=Bran van 3000/Drinking in LA
TTITLE5=Depeche mode/Useless
TTITLE6=Clannad/In a life time
TTITLE7=Kristin hersh/Your ghost
TTITLE8=Madredeus/Alfama
TTITLE9=The sabres of paradise/Smokebelch II
TTITLE10=Moloko/The time is now
TTITLE11=Ominostanco/Poshwee
TTITLE12=Spiritualised/I think i'm in love
TTITLE13=Sainkho/Let the sunshine
TTITLE14=Badly draw boy/The shining
TTITLE15=Brian eno and David byrne/A secret life
EXTD=YEAR: 2001
EXTT0=
EXTT1=
EXTT2=
EXTT3=
EXTT4=
EXTT5=
EXTT6=
EXTT7=
EXTT8=
EXTT9=
EXTT10=
EXTT11=
EXTT12=
EXTT13=
EXTT14=
EXTT15=
PLAYORDER=
